<svg xmlns="http://www.w3.org/2000/svg" xmlns:xlink="http://www.w3.org/1999/xlink" width="1080" zoomAndPan="magnify" viewBox="0 0 810 809.999993" height="1080" preserveAspectRatio="xMidYMid meet" version="1.0"><path fill="#185fa5" d="M 31.855469 21.386719 C 24.007812 24.925781 16.3125 33.542969 14.3125 41.085938 C 12.003906 49.085938 12.003906 226.347656 14.3125 234.351562 C 15.238281 237.582031 18.3125 242.96875 21.238281 246.199219 C 36.472656 262.972656 63.398438 259.585938 73.402344 239.582031 L 77.246094 231.734375 L 77.246094 181.265625 C 77.246094 153.566406 77.710938 130.792969 78.324219 130.792969 C 80.171875 130.792969 346.527344 397.609375 346.527344 399.304688 C 346.527344 400.996094 80.171875 667.8125 78.480469 667.8125 C 77.863281 667.8125 77.246094 643.964844 76.941406 614.882812 L 76.476562 561.949219 L 71.863281 555.332031 C 65.707031 546.714844 56.011719 541.636719 45.550781 541.636719 C 35.394531 541.636719 30.164062 543.636719 23.546875 549.792969 C 12.3125 560.5625 12.621094 556.253906 12.621094 659.351562 C 12.621094 719.824219 13.234375 753.675781 14.3125 757.523438 C 15.238281 760.753906 18.3125 766.140625 21.238281 769.371094 C 31.394531 780.605469 28.007812 780.296875 135.257812 779.835938 L 230.8125 779.375 L 237.429688 774.757812 C 247.277344 767.832031 251.433594 758.753906 250.816406 746.136719 C 250.046875 732.75 245.277344 725.210938 234.046875 719.515625 L 225.890625 715.515625 L 175.417969 715.515625 C 147.722656 715.515625 124.949219 715.054688 124.949219 714.4375 C 124.949219 712.589844 391.765625 446.234375 393.460938 446.234375 C 394.382812 446.234375 455.625 506.863281 529.636719 580.875 L 664.277344 715.515625 L 613.039062 715.515625 C 557.335938 715.515625 555.179688 715.824219 545.949219 724.441406 C 529.023438 740.289062 534.410156 768.753906 556.105469 777.679688 C 561.027344 779.835938 574.261719 780.140625 655.507812 780.140625 L 749.0625 780.140625 L 756.910156 776.296875 C 761.835938 773.832031 766.296875 769.988281 769.066406 765.984375 L 773.527344 759.675781 L 773.992188 662.429688 L 774.296875 565.335938 L 770.757812 558.410156 C 765.375 548.253906 756.449219 542.714844 744.445312 541.945312 C 733.523438 541.175781 725.828125 544.253906 718.597656 551.945312 C 710.75 560.257812 710.441406 561.949219 709.671875 616.726562 L 708.902344 667.96875 L 575.03125 534.097656 C 501.480469 460.390625 441.007812 399.613281 440.851562 398.996094 C 440.546875 398.226562 501.015625 337.136719 575.03125 263.125 L 709.671875 128.484375 L 709.671875 177.417969 C 709.671875 208.039062 710.285156 228.964844 711.363281 233.121094 C 718.289062 260.816406 757.371094 265.433594 770.757812 240.199219 L 774.296875 233.425781 L 774.296875 42.007812 L 770.757812 35.238281 C 768.757812 31.542969 764.140625 26.3125 760.601562 23.851562 L 753.988281 19.234375 L 659.199219 18.773438 C 593.496094 18.464844 562.414062 18.773438 558.414062 20.003906 C 545.949219 23.695312 535.792969 37.390625 535.792969 50.777344 C 535.792969 64.320312 546.101562 78.015625 558.875 81.554688 C 561.796875 82.476562 586.570312 83.09375 614.269531 83.09375 L 664.277344 83.09375 L 529.636719 217.730469 C 455.625 291.746094 394.535156 352.21875 393.765625 351.910156 C 393.152344 351.757812 332.371094 291.285156 258.664062 217.730469 L 124.796875 83.863281 L 176.804688 83.09375 C 228.351562 82.324219 228.8125 82.324219 235.277344 78.628906 C 238.96875 76.476562 243.738281 72.167969 246.046875 68.78125 C 249.894531 63.242188 250.355469 61.242188 250.355469 50.625 C 250.355469 39.851562 249.894531 38.160156 245.738281 32.160156 C 243.277344 28.621094 238.046875 24.003906 234.351562 22.003906 L 227.582031 18.464844 L 132.796875 18.464844 C 44.472656 18.464844 37.546875 18.773438 31.855469 21.386719 Z M 31.855469 21.386719 " fill-opacity="1" fill-rule="nonzero"/></svg>